<svg xmlns="http://www.w3.org/2000/svg" width="1000" height="924" viewBox="0 0 1000 924" style="background-color: #F8FAFC;">
  <defs>
    <pattern id="dot-grid" x="0" y="0" width="24" height="24" patternUnits="userSpaceOnUse">
      <circle cx="2" cy="2" r="1" fill="#CBD5E1" />
    </pattern>
  </defs>
  <style>
    .slate-title { font-family: 'Outfit', -apple-system, BlinkMacSystemFont, 'Segoe UI', Roboto, sans-serif; font-size: 32px; font-weight: 700; fill: #0F172A; }
    .slate-subtitle { font-family: 'Inter', -apple-system, BlinkMacSystemFont, 'Segoe UI', Roboto, sans-serif; font-size: 16px; fill: #64748B; }
    .slate-heading { font-family: 'Outfit', -apple-system, BlinkMacSystemFont, 'Segoe UI', Roboto, sans-serif; font-size: 18px; font-weight: 600; fill: #0F172A; }
    .slate-text { font-family: 'Inter', -apple-system, BlinkMacSystemFont, 'Segoe UI', Roboto, sans-serif; font-size: 14px; fill: #334155; }
    .stat-title { font-family: 'Inter', -apple-system, BlinkMacSystemFont, 'Segoe UI', Roboto, sans-serif; font-size: 11px; fill: #64748B; font-weight: 600; text-transform: uppercase; }
    .stat-value { font-family: 'Outfit', -apple-system, BlinkMacSystemFont, 'Segoe UI', Roboto, sans-serif; font-size: 20px; fill: #0F172A; font-weight: 700; }
    .stat-delta-pos { fill: #03543F; font-weight: bold; }
    .stat-delta-neg { fill: #9B1C1C; font-weight: bold; }
    .label-text { font-family: 'Inter', -apple-system, BlinkMacSystemFont, 'Segoe UI', Roboto, sans-serif; font-size: 12px; fill: #64748B; font-weight: 600; }
    .input-box { fill: #FFFFFF; stroke: #D1D5DB; stroke-width: 1; rx: 6px; }
    .button-rect { fill: #4F46E5; rx: 6px; }
    .button-text { font-family: 'Inter', -apple-system, BlinkMacSystemFont, 'Segoe UI', Roboto, sans-serif; font-size: 13px; fill: #FFFFFF; font-weight: 600; }
    .divider-line { stroke: #E2E8F0; stroke-width: 1; }
  </style>
  <rect width="1000" height="924" fill="url(#dot-grid)" />
  <!-- Canvas outer design blueprint border -->
  <rect x="20" y="20" width="960" height="884" fill="none" stroke="#CBD5E1" stroke-width="1.2" stroke-dasharray="4 4" rx="16" />
  <text x="36" y="40" fill="#94A3B8" font-family="monospace" font-size="9" font-weight="bold">SLATE ARTBOARD // 1000x924</text>
  <text x="50" y="68" class="slate-title">Slate Universal Language Demo</text><text x="50" y="108" class="slate-title">Slate Universal Language Demo</text><text x="50" y="136" class="slate-subtitle">Visual interfaces, charts, diagrams, and layouts compiled natively.</text><line x1="50" y1="156" x2="950" y2="156" class="divider-line" /><g>
                                 <rect x="50" y="166" width="438" height="268" fill="#FFFFFF" stroke="#E2E8F0" stroke-width="1" rx="12" />
                                 <g transform="translate(62, 166)">
                                     <rect x="0" y="-8" width="90" height="14" fill="#F1F5F9" rx="3" stroke="#CBD5E1" stroke-width="0.8" />
                                     <text x="45" y="9.5" fill="#64748B" font-family="monospace" font-size="8" font-weight="bold" text-anchor="middle">card: StatsCard</text>
                                   </g>
                                 <text x="70" y="204" class="slate-heading">KPI Overview</text><g>
                                 <rect x="70" y="214" width="398" height="70" fill="#FFFFFF" stroke="#E2E8F0" stroke-width="1" rx="8" />
                                 <rect x="70" y="214" width="4" height="70" fill="#4F46E5" rx="2" />
                                 <text x="86" y="238" class="stat-title">ActiveUsers</text>
                                 <text x="86" y="268" class="stat-value">0<tspan dx="8" font-size="10" font-weight="bold" class="stat-delta-pos">+12.4%</tspan></text>
                               </g>
                            <g>
                                 <rect x="70" y="298" width="398" height="70" fill="#FFFFFF" stroke="#E2E8F0" stroke-width="1" rx="8" />
                                 <rect x="70" y="298" width="4" height="70" fill="#4F46E5" rx="2" />
                                 <text x="86" y="322" class="stat-title">TotalRevenue</text>
                                 <text x="86" y="352" class="stat-value">$94k<tspan dx="8" font-size="10" font-weight="bold" class="stat-delta-pos">+8.7%</tspan></text>
                               </g>
                            <text x="70" y="416" class="slate-text">Real-time statistics fetched from your visual data model.</text>
                                 <g stroke="#CBD5E1" stroke-width="0.8">
                                  <path d="M 45 166 L 55 166 M 50 161 L 50 171" />
                                  <path d="M 483 166 L 493 166 M 488 161 L 488 171" />
                                  <path d="M 45 434 L 55 434 M 50 429 L 50 439" />
                                  <path d="M 483 434 L 493 434 M 488 429 L 488 439" />
                                </g>
                               </g>
                            <g>
                                 <rect x="512" y="166" width="438" height="288" fill="#FFFFFF" stroke="#E2E8F0" stroke-width="1" rx="12" />
                                 <g transform="translate(524, 166)">
                                     <rect x="0" y="-8" width="132" height="14" fill="#F1F5F9" rx="3" stroke="#CBD5E1" stroke-width="0.8" />
                                     <text x="66" y="9.5" fill="#64748B" font-family="monospace" font-size="8" font-weight="bold" text-anchor="middle">card: RevenueChartCard</text>
                                   </g>
                                 <text x="532" y="204" class="slate-heading">Monthly Revenue Distribution</text><svg x="532" y="214" width="398" height="220" viewBox="0 0 398 220">
                                 <rect x="0" y="0" width="398" height="180" fill="#FFFFFF" stroke="#E2E8F0" stroke-width="1" rx="12" />
               <g transform="translate(12, 0)">
                     <rect x="0" y="-8" width="75" height="14" fill="#F1F5F9" rx="3" stroke="#CBD5E1" stroke-width="0.8" />
                     <text x="37" y="9.5" fill="#64748B" font-family="monospace" font-size="8" font-weight="bold" text-anchor="middle">chart: Monthly</text>
                   </g>
               <text x="20" y="24" fill="#64748B" font-family="sans-serif" font-size="11" font-weight="bold" letter-spacing="0.5">MONTHLY</text>
            <line x1="40" y1="40" x2="358" y2="40" stroke="#F1F5F9" stroke-width="1" stroke-dasharray="4" />
                   <text x="32" y="40" fill="#64748B" font-family="sans-serif" font-size="9" text-anchor="end" alignment-baseline="middle">8900</text>
                <line x1="40" y1="65" x2="358" y2="65" stroke="#F1F5F9" stroke-width="1" stroke-dasharray="4" />
                   <text x="32" y="65" fill="#64748B" font-family="sans-serif" font-size="9" text-anchor="end" alignment-baseline="middle">6675</text>
                <line x1="40" y1="90" x2="358" y2="90" stroke="#F1F5F9" stroke-width="1" stroke-dasharray="4" />
                   <text x="32" y="90" fill="#64748B" font-family="sans-serif" font-size="9" text-anchor="end" alignment-baseline="middle">4450</text>
                <line x1="40" y1="115" x2="358" y2="115" stroke="#F1F5F9" stroke-width="1" stroke-dasharray="4" />
                   <text x="32" y="115" fill="#64748B" font-family="sans-serif" font-size="9" text-anchor="end" alignment-baseline="middle">2225</text>
                <line x1="40" y1="140" x2="358" y2="140" stroke="#F1F5F9" stroke-width="1" stroke-dasharray="4" />
                   <text x="32" y="140" fill="#64748B" font-family="sans-serif" font-size="9" text-anchor="end" alignment-baseline="middle">0</text>
                <rect x="52" y="92.80898876404495" width="39" height="47.19101123595505" fill="#6366F1" rx="4" />
                           <text x="71.5" y="154" fill="#64748B" font-family="sans-serif" font-size="9" text-anchor="middle">Jan</text>
                        <rect x="103" y="86.06741573033707" width="39" height="53.93258426966292" fill="#6366F1" rx="4" />
                           <text x="122.5" y="154" fill="#64748B" font-family="sans-serif" font-size="9" text-anchor="middle">Feb</text>
                        <rect x="154" y="70.33707865168539" width="39" height="69.66292134831461" fill="#6366F1" rx="4" />
                           <text x="173.5" y="154" fill="#64748B" font-family="sans-serif" font-size="9" text-anchor="middle">Mar</text>
                        <rect x="205" y="74.8314606741573" width="39" height="65.1685393258427" fill="#6366F1" rx="4" />
                           <text x="224.5" y="154" fill="#64748B" font-family="sans-serif" font-size="9" text-anchor="middle">Apr</text>
                        <rect x="256" y="60.2247191011236" width="39" height="79.7752808988764" fill="#6366F1" rx="4" />
                           <text x="275.5" y="154" fill="#64748B" font-family="sans-serif" font-size="9" text-anchor="middle">May</text>
                        <rect x="307" y="40" width="39" height="100" fill="#6366F1" rx="4" />
                           <text x="326.5" y="154" fill="#64748B" font-family="sans-serif" font-size="9" text-anchor="middle">Jun</text>
                        
                               </svg>
                            
                                 <g stroke="#CBD5E1" stroke-width="0.8">
                                  <path d="M 507 166 L 517 166 M 512 161 L 512 171" />
                                  <path d="M 945 166 L 955 166 M 950 161 L 950 171" />
                                  <path d="M 507 454 L 517 454 M 512 449 L 512 459" />
                                  <path d="M 945 454 L 955 454 M 950 449 L 950 459" />
                                </g>
                               </g>
                            <line x1="500" y1="166" x2="500" y2="478" stroke="#CBD5E1" stroke-width="1" stroke-dasharray="4 4" /><g>
                                 <rect x="50" y="522" width="438" height="318" fill="#FFFFFF" stroke="#E2E8F0" stroke-width="1" rx="12" />
                                 <g transform="translate(62, 522)">
                                     <rect x="0" y="-8" width="84" height="14" fill="#F1F5F9" rx="3" stroke="#CBD5E1" stroke-width="0.8" />
                                     <text x="42" y="9.5" fill="#64748B" font-family="monospace" font-size="8" font-weight="bold" text-anchor="middle">card: FlowCard</text>
                                   </g>
                                 <text x="70" y="560" class="slate-heading">Business Operations Pipeline</text><svg x="70" y="570" width="398" height="250" viewBox="0 0 398 250">
                                 <rect x="0" y="0" width="398" height="220" fill="#FFFFFF" stroke="#E2E8F0" stroke-width="1" rx="12" />
               <g transform="translate(12, 0)">
                     <rect x="0" y="-8" width="127" height="14" fill="#F1F5F9" rx="3" stroke="#CBD5E1" stroke-width="0.8" />
                     <text x="63" y="9.5" fill="#64748B" font-family="monospace" font-size="8" font-weight="bold" text-anchor="middle">diagram: ApprovalProcess</text>
                   </g>
               <text x="20" y="24" fill="#64748B" font-family="sans-serif" font-size="11" font-weight="bold" letter-spacing="0.5">APPROVALPROCESS</text>
               <defs>
                 <marker id="arrow" viewBox="0 0 10 10" refX="6" refY="5" markerWidth="5" markerHeight="5" orient="auto-start-reverse">
                   <path d="M 0 0 L 10 5 L 0 10 z" fill="#64748B" />
                 </marker>
               </defs>
            <path d="M 59.078893456268375 90.99965203027307 C 70.21055327186582 90.99965203027307, 70.21055327186582 98.00069593945385, 81.34221308746325 98.00069593945385" fill="none" stroke="#64748B" stroke-width="1.5" marker-end="url(#arrow)" /><path d="M 154.5 110 L 170 110" fill="none" stroke="#64748B" stroke-width="1.5" marker-end="url(#arrow)" /><path d="M 224 110 L 249.5 110" fill="none" stroke="#64748B" stroke-width="1.5" marker-end="url(#arrow)" /><text x="238.75" y="104" fill="#475569" font-family="sans-serif" font-size="9" text-anchor="middle">Pass</text><path d="M 303.5 110 L 333 110" fill="none" stroke="#64748B" stroke-width="1.5" marker-end="url(#arrow)" /><g transform="translate(278.5, 110)"><polygon points="0,-18 22,0 0,18 -22,0" fill="#FDF2F8" stroke="#DB2777" stroke-width="1.5" /><text x="0" y="3.5" fill="#831843" font-family="sans-serif" font-size="9" font-weight="bold" text-anchor="middle">Approved</text>
                       </g>
                    <g transform="translate(40, 135)"><rect x="-35" y="-16" width="70" height="32" fill="#F0FDFA" stroke="#0D9488" stroke-width="1.5" rx="6" /><text x="0" y="3.5" fill="#115E59" font-family="sans-serif" font-size="9" font-weight="bold" text-anchor="middle">new</text>
                       </g>
                    <g transform="translate(199, 110)"><polygon points="0,-18 22,0 0,18 -22,0" fill="#FDF2F8" stroke="#DB2777" stroke-width="1.5" /><text x="0" y="3.5" fill="#831843" font-family="sans-serif" font-size="9" font-weight="bold" text-anchor="middle">Review</text>
                       </g>
                    <g transform="translate(119.5, 110)"><rect x="-35" y="-16" width="70" height="32" fill="#F0FDFA" stroke="#0D9488" stroke-width="1.5" rx="6" /><text x="0" y="3.5" fill="#115E59" font-family="sans-serif" font-size="9" font-weight="bold" text-anchor="middle">Submit</text>
                       </g>
                    <g transform="translate(40, 85)"><circle cx="0" cy="0" r="18" fill="#EEF2FF" stroke="#6366F1" stroke-width="1.5" /><text x="0" y="3.5" fill="#312E81" font-family="sans-serif" font-size="9" font-weight="bold" text-anchor="middle">Start</text>
                       </g>
                    <g transform="translate(358, 110)"><circle cx="0" cy="0" r="18" fill="#EEF2FF" stroke="#6366F1" stroke-width="1.5" /><text x="0" y="3.5" fill="#312E81" font-family="sans-serif" font-size="9" font-weight="bold" text-anchor="middle">End</text>
                       </g>
                    
                               </svg>
                            
                                 <g stroke="#CBD5E1" stroke-width="0.8">
                                  <path d="M 45 522 L 55 522 M 50 517 L 50 527" />
                                  <path d="M 483 522 L 493 522 M 488 517 L 488 527" />
                                  <path d="M 45 840 L 55 840 M 50 835 L 50 845" />
                                  <path d="M 483 840 L 493 840 M 488 835 L 488 845" />
                                </g>
                               </g>
                            <g>
                                 <rect x="512" y="522" width="438" height="58" fill="#FFFFFF" stroke="#E2E8F0" stroke-width="1" rx="12" />
                                 <g transform="translate(524, 522)">
                                     <rect x="0" y="-8" width="84" height="14" fill="#F1F5F9" rx="3" stroke="#CBD5E1" stroke-width="0.8" />
                                     <text x="42" y="9.5" fill="#64748B" font-family="monospace" font-size="8" font-weight="bold" text-anchor="middle">card: FormCard</text>
                                   </g>
                                 <text x="532" y="560" class="slate-heading">Interactive Feedback Form</text>
                                 <g stroke="#CBD5E1" stroke-width="0.8">
                                  <path d="M 507 522 L 517 522 M 512 517 L 512 527" />
                                  <path d="M 945 522 L 955 522 M 950 517 L 950 527" />
                                  <path d="M 507 580 L 517 580 M 512 575 L 512 585" />
                                  <path d="M 945 580 L 955 580 M 950 575 L 950 585" />
                                </g>
                               </g>
                            <line x1="500" y1="522" x2="500" y2="864" stroke="#CBD5E1" stroke-width="1" stroke-dasharray="4 4" />
</svg>